<?xml version="1.0" standalone="no"?>
<!DOCTYPE svg PUBLIC "-//W3C//DTD SVG 20010904//EN"
 "http://www.w3.org/TR/2001/REC-SVG-20010904/DTD/svg10.dtd">
<svg version="1.0" xmlns="http://www.w3.org/2000/svg"
 width="1024.000000pt" height="1024.000000pt" viewBox="0 0 1024.000000 1024.000000"
 preserveAspectRatio="xMidYMid meet">
<metadata>
Created by potrace 1.14, written by Peter Selinger 2001-2017
</metadata>
<g transform="translate(0.000000,1024.000000) scale(0.100000,-0.100000)"
fill="#000000" stroke="none">
<path d="M0 5120 l0 -5120 4720 0 4720 0 0 80 0 80 320 0 320 0 0 -80 0 -80
80 0 80 0 0 5120 0 5120 -5120 0 -5120 0 0 -5120z m7208 4265 c2 -154 0 -321
-3 -370 l-7 -90 -46 -40 c-26 -21 -71 -66 -100 -99 -28 -34 -153 -164 -277
-290 l-225 -228 0 694 c0 382 3 698 7 701 4 4 151 6 327 5 l321 -3 3 -280z
m-5274 198 c45 -43 106 -100 137 -128 30 -27 96 -86 145 -130 49 -44 116 -105
149 -135 33 -31 100 -92 150 -135 49 -44 101 -90 115 -103 l25 -22 3 365 2
365 319 0 320 0 3 -102 c2 -57 3 -962 3 -2013 -1 -1769 -2 -1914 -18 -1965
l-17 -55 -1107 3 c-865 2 -1109 5 -1115 15 -4 6 -8 119 -8 249 0 235 0 237 22
249 17 9 169 11 628 6 l605 -5 -60 56 c-33 31 -105 96 -160 145 -55 48 -131
115 -170 148 -38 34 -95 84 -125 111 -30 28 -66 60 -80 72 -14 12 -88 78 -165
147 -77 68 -156 137 -175 152 -19 16 -55 48 -80 71 -25 23 -65 57 -90 76 -25
19 -64 52 -87 74 l-43 40 0 394 0 394 83 -74 c45 -40 84 -75 87 -78 3 -3 72
-64 155 -135 82 -72 218 -191 301 -265 83 -74 226 -200 319 -280 93 -80 214
-185 270 -235 116 -103 338 -293 366 -313 18 -13 19 -8 19 160 1 95 2 357 4
581 l3 408 -51 40 c-28 22 -78 66 -111 98 -33 31 -109 102 -170 156 -129 117
-192 174 -214 195 -9 9 -56 52 -105 95 -50 44 -97 87 -106 95 -9 8 -52 47 -95
85 -44 39 -106 95 -140 125 -33 30 -96 87 -140 125 -43 39 -111 100 -150 136
-38 36 -94 88 -124 115 -30 27 -76 72 -103 100 -27 28 -60 57 -73 64 l-25 13
0 264 0 263 397 0 397 0 80 -77z m6459 -768 c-3 -9 -8 -14 -10 -11 -3 3 -2 9
2 15 9 16 15 13 8 -4z m-1193 -147 c0 -68 0 -241 0 -386 -1 -223 2 -263 14
-260 7 2 76 62 152 134 77 72 159 148 184 169 24 20 50 44 57 53 7 10 12 12
13 5 0 -6 -5 -15 -11 -18 -5 -4 -22 -26 -37 -50 -15 -23 -76 -84 -137 -134
-60 -51 -136 -117 -167 -148 l-58 -56 0 -94 0 -94 27 21 c14 11 45 36 67 56
105 90 147 124 156 124 18 0 205 158 365 310 210 199 264 250 335 315 41 38
99 90 127 117 29 27 57 47 63 43 5 -3 10 -1 10 4 0 6 5 11 12 11 16 0 -13 -30
-128 -134 -404 -363 -644 -585 -800 -740 -100 -98 -193 -186 -208 -195 l-26
-16 2 -835 3 -835 170 0 c94 0 287 1 430 2 143 1 419 2 613 3 l352 2 0 -250
c0 -138 -3 -253 -7 -255 -10 -5 -1495 -12 -1924 -9 l-307 2 -7 80 c-5 61 -4
84 6 97 11 13 14 232 17 1239 l4 1223 311 311 c171 170 315 310 319 310 5 0 8
-55 8 -122z m360 -1883 c-13 -14 -27 -25 -32 -25 -9 0 42 49 51 50 3 0 -6 -11
-19 -25z m-290 -731 c0 -8 -4 -12 -10 -9 -5 3 -10 10 -10 16 0 5 5 9 10 9 6 0
10 -7 10 -16z m-4467 -2001 c2 -5 -20 -82 -48 -173 -29 -91 -65 -204 -79 -252
l-27 -88 -52 -1 c-29 0 -81 1 -117 2 -36 2 -371 3 -745 3 l-680 1 -3 245 c-1
134 0 250 3 257 3 10 181 13 874 13 478 0 872 -3 874 -7z m5962 -253 l0 -255
-638 1 c-351 1 -636 -2 -635 -5 3 -8 59 -58 244 -221 65 -58 151 -134 190
-170 38 -36 124 -112 189 -170 66 -58 149 -132 185 -165 87 -78 181 -159 250
-214 30 -25 90 -76 133 -114 l77 -69 0 -415 0 -415 -52 43 c-29 24 -76 64
-104 89 -179 161 -220 197 -244 215 -14 11 -48 40 -75 65 -27 25 -76 70 -109
101 -34 31 -81 74 -105 95 -25 22 -74 67 -110 100 -36 34 -89 81 -117 105 -28
24 -112 98 -186 164 -74 66 -156 138 -181 160 -45 38 -49 47 -106 215 -32 96
-79 229 -104 295 -75 201 -267 782 -267 806 0 4 10 10 23 12 12 3 409 4 882 3
l860 -1 0 -255z m-5460 -3468 c-3 -10 -73 -12 -322 -10 l-318 3 1 350 c1 412
8 525 33 525 10 0 26 7 37 15 12 9 43 14 86 15 59 0 69 3 82 23 15 24 88 235
131 382 15 50 51 165 81 257 29 92 63 200 74 240 11 40 41 139 67 220 l48 147
3 -1077 c1 -592 0 -1083 -3 -1090z m-2035 2144 c0 -3 -4 -8 -10 -11 -5 -3 -10
-1 -10 4 0 6 5 11 10 11 6 0 10 -2 10 -4z m-26 -21 c3 -8 1 -15 -4 -15 -6 0
-10 7 -10 15 0 8 2 15 4 15 2 0 6 -7 10 -15z m5391 -275 c73 -224 208 -627
283 -847 l35 -103 497 0 498 0 12 -31 c8 -17 25 -39 39 -48 32 -20 220 -200
534 -512 237 -235 238 -236 235 -275 l-3 -39 -451 -3 -450 -2 -236 242 c-129
134 -275 284 -324 333 l-89 90 -3 -333 -2 -332 -325 0 c-251 0 -327 3 -330 12
-7 20 -11 2108 -4 2095 4 -7 41 -118 84 -247z m-5420 210 c3 -6 -1 -7 -9 -4
-18 7 -21 14 -7 14 6 0 13 -4 16 -10z m-121 -87 c-5 -5 -12 -12 -16 -18 -4 -6
-8 -2 -8 8 0 9 7 17 17 17 9 0 12 -3 7 -7z m334 -98 c-3 -3 -9 2 -12 12 -6 14
-5 15 5 6 7 -7 10 -15 7 -18z m-158 -5 c0 -5 -2 -10 -4 -10 -3 0 -8 5 -11 10
-3 6 -1 10 4 10 6 0 11 -4 11 -10z m140 -15 c0 -8 -2 -15 -4 -15 -2 0 -6 7
-10 15 -3 8 -1 15 4 15 6 0 10 -7 10 -15z m-275 -24 c3 -5 0 -13 -6 -17 -7 -4
-9 -3 -5 4 3 5 0 13 -6 15 -9 4 -10 6 -1 6 6 1 14 -3 18 -8z m370 -34 c21 -13
33 -47 15 -47 -5 0 -10 10 -10 23 0 18 -2 19 -10 7 -8 -13 -10 -12 -10 3 0 9
-5 17 -11 17 -6 0 -8 -7 -5 -16 3 -8 2 -13 -3 -10 -11 7 -34 -20 -38 -44 -1
-11 2 -22 9 -26 6 -4 8 -3 5 3 -4 6 -1 13 7 16 8 3 13 0 12 -8 -3 -20 -13 -28
-37 -32 -16 -2 -19 1 -14 17 3 11 9 32 11 47 3 16 12 32 20 36 8 5 12 12 9 18
-9 13 26 11 50 -4z m55 -11 c0 -3 -4 -8 -10 -11 -5 -3 -10 -1 -10 4 0 6 5 11
10 11 6 0 10 -2 10 -4z m-375 -35 c3 -5 1 -12 -5 -16 -5 -3 -10 1 -10 9 0 18
6 21 15 7z m89 -20 c-2 -3 -12 3 -22 13 -16 17 -16 18 5 5 12 -7 20 -15 17
-18z m114 7 c-2 -6 -12 -12 -21 -14 -9 -1 -15 2 -11 7 3 5 10 7 15 4 5 -4 9
-1 9 4 0 6 3 11 6 11 3 0 4 -5 2 -12z m-71 -39 c-6 -10 -16 -19 -21 -19 -4 0
-3 7 4 15 7 8 9 22 6 31 -5 14 -4 15 8 5 12 -10 13 -16 3 -32z m-164 -20 c5
-3 2 -9 -5 -12 -9 -3 -14 3 -15 15 -1 11 1 16 5 12 4 -5 11 -12 15 -15z m261
-11 c7 -5 7 -11 -3 -20 -10 -10 -12 -10 -7 0 4 6 3 12 -2 12 -6 0 -13 -12 -17
-27 -4 -18 -9 -23 -14 -14 -4 6 -12 11 -17 10 -26 -4 -37 3 -16 11 12 5 22 14
22 20 0 6 -5 8 -12 4 -7 -4 -8 -3 -4 5 10 15 29 3 22 -15 -3 -7 -1 -16 4 -19
6 -4 11 2 12 12 0 10 2 23 3 28 2 6 4 15 5 20 1 6 4 3 7 -5 3 -8 11 -18 17
-22z m-184 12 c0 -5 -2 -10 -4 -10 -3 0 -8 5 -11 10 -3 6 -1 10 4 10 6 0 11
-4 11 -10z m40 -4 c-7 -7 -14 -6 -21 1 -9 9 -7 12 9 10 14 -1 18 -5 12 -11z
m-156 -31 c-4 -8 -11 -12 -17 -8 -8 5 -7 8 1 11 7 2 9 9 6 14 -4 7 -2 8 4 4 6
-4 9 -13 6 -21z m196 21 c0 -2 -7 -7 -16 -10 -8 -3 -12 -2 -9 4 6 10 25 14 25
6z m-127 -13 c-7 -2 -13 -11 -13 -19 0 -9 4 -12 10 -9 6 4 7 -1 3 -11 -4 -11
-8 -13 -11 -6 -2 7 -8 10 -13 6 -7 -4 -7 19 0 44 1 1 9 2 19 1 10 0 12 -3 5
-6z m128 -38 c5 3 18 1 29 -5 19 -10 19 -11 2 -29 -20 -21 -30 -18 -12 4 11
14 10 14 -14 5 -15 -5 -25 -6 -21 -1 6 10 -11 24 -32 27 -17 3 -26 -27 -12
-40 9 -8 10 -7 6 7 -8 22 8 22 31 -1 14 -14 16 -24 9 -40 -9 -20 -11 -20 -35
-4 -19 12 -24 13 -18 3 6 -9 5 -12 -2 -7 -6 4 -9 13 -5 21 3 8 0 15 -6 15 -9
0 -9 5 -1 20 6 11 7 20 3 20 -4 0 -1 5 7 10 10 6 11 10 3 10 -7 0 -13 4 -13
10 0 5 7 7 15 4 8 -4 15 -1 15 6 0 7 9 1 21 -14 11 -14 25 -24 30 -21z m-94
-10 c2 -14 -1 -25 -7 -25 -6 0 -9 -4 -6 -9 3 -5 -1 -11 -9 -15 -19 -7 -19 3 0
27 7 11 12 28 10 39 -3 11 -1 18 2 14 4 -4 9 -18 10 -31z m-77 21 c0 -2 -8
-10 -17 -17 -16 -13 -17 -12 -4 4 13 16 21 21 21 13z m-46 -48 c-3 -4 2 -8 11
-8 10 0 13 5 9 12 -4 7 -3 8 5 4 6 -4 9 -11 6 -16 -3 -5 -1 -11 4 -15 6 -3 16
5 22 17 l13 23 6 -25 c5 -18 13 -25 30 -24 21 1 22 0 5 -12 -10 -7 -22 -11
-26 -8 -5 3 -9 0 -9 -5 0 -10 14 -15 33 -12 10 2 9 -13 -4 -26 -7 -7 -6 -12 6
-17 9 -3 14 -2 11 2 -3 5 2 9 10 9 8 0 -16 -30 -53 -67 -54 -52 -72 -64 -86
-57 -24 11 -16 85 11 107 10 9 16 22 14 29 -3 10 0 11 9 5 11 -6 12 -5 3 7 -6
8 -10 24 -9 36 1 18 -1 20 -17 12 -10 -6 -16 -14 -13 -20 4 -5 1 -9 -4 -9 -14
0 -14 17 -1 25 6 3 10 11 10 16 0 6 -4 8 -8 5 -5 -3 -9 1 -9 8 0 7 6 13 13 13
7 0 11 -4 8 -9z m171 -68 c0 -7 -10 -14 -22 -15 -21 -2 -31 14 -17 27 10 11
39 1 39 -12z m-163 -9 c-7 -4 -12 -13 -10 -18 2 -6 0 -11 -4 -12 -5 -1 -8 1
-8 4 0 3 0 12 0 20 0 8 8 15 18 15 13 0 14 -2 4 -9z m892 -591 c5 -8 6 -12 2
-8 -5 4 -16 2 -24 -5 -13 -10 -15 -9 -9 8 7 20 7 20 -8 1 -21 -27 -19 -6 2 24
12 18 18 20 21 9 3 -8 10 -21 16 -29z m-74 -35 c-7 -8 -18 -15 -24 -15 -6 0
-2 7 8 15 25 19 32 19 16 0z m-180 -232 c0 -7 -5 -13 -11 -13 -17 0 -50 -42
-45 -56 3 -7 -15 -32 -40 -57 -47 -49 -51 -57 -32 -87 12 -18 4 -29 -80 -113
l-92 -92 -58 3 c-31 1 -79 6 -105 10 l-48 7 98 85 c54 47 160 147 237 223 133
132 139 137 157 121 11 -9 19 -23 19 -31z"/>
<path d="M7224 7766 c-10 -8 -16 -17 -13 -20 3 -3 14 3 24 14 21 23 17 26 -11
6z"/>
<path d="M1140 1865 c-11 -13 -11 -18 0 -28 10 -9 11 -9 6 1 -4 7 -2 19 4 27
7 8 10 15 7 15 -2 0 -10 -7 -17 -15z"/>
<path d="M1130 1796 c0 -2 8 -10 18 -17 15 -13 16 -12 3 4 -13 16 -21 21 -21
13z"/>
<path d="M1110 1769 c0 -5 -5 -7 -12 -3 -7 4 -8 3 -4 -5 6 -9 11 -9 22 0 17
14 18 19 4 19 -5 0 -10 -5 -10 -11z"/>
<path d="M1137 1753 c-4 -3 -7 -11 -7 -17 0 -6 5 -5 12 2 6 6 9 14 7 17 -3 3
-9 2 -12 -2z"/>
<path d="M1089 1738 c-7 -13 -4 -48 3 -48 6 0 8 7 4 15 -3 8 -1 15 4 15 6 0
10 5 10 10 0 9 -18 15 -21 8z"/>
<path d="M1693 985 c0 -6 8 -12 18 -12 11 -1 16 3 13 11 -6 16 -31 17 -31 1z"/>
</g>
</svg>
